<?xml version="1.0" encoding="UTF-8"?> <svg xmlns:sketch="http://www.bohemiancoding.com/sketch/ns" xmlns="http://www.w3.org/2000/svg" xmlns:xlink="http://www.w3.org/1999/xlink" version="1.1" id="bitcoin_icon" x="0px" y="0px" viewBox="0 0 780 501" style="enable-background:new 0 0 780 501;" xml:space="preserve"><style type="text/css"> #bitcoin_icon .st0{fill:#F7931A;} #bitcoin_icon .st1{fill:#FFFFFF;} </style><path class="st0" d="M725,0H55C24.7,0,0,24.7,0,55v391c0,30.3,24.7,55,55,55h670c30.3,0,55-24.7,55-55V55C780,24.7,755.3,0,725,0z"></path><g><path class="st1" d="M213.1,266.9c-8.4,33.6-42.4,54.1-76.1,45.7c-33.6-8.4-54.1-42.4-45.7-76.1c8.4-33.6,42.4-54.1,76.1-45.7 C201,199.3,221.4,233.3,213.1,266.9L213.1,266.9z"></path><path class="st0" d="M179.8,242.8c1.2-8.4-5.1-12.8-13.8-15.8l2.8-11.3L162,214l-2.7,11c-1.8-0.5-3.7-0.9-5.5-1.3l2.8-11.1 l-6.9-1.7l-2.8,11.3c-1.5-0.3-3-0.7-4.4-1l0,0l-9.5-2.4l-1.8,7.4c0,0,5.1,1.2,5,1.2c2.8,0.7,3.3,2.5,3.2,4l-3.2,12.9 c0.2,0,0.4,0.1,0.7,0.2c-0.2-0.1-0.5-0.1-0.7-0.2l-4.5,18.1c-0.3,0.8-1.2,2.1-3.2,1.6c0.1,0.1-5-1.2-5-1.2l-3.4,7.9l9,2.2 c1.7,0.4,3.3,0.9,4.9,1.3l-2.8,11.4l6.9,1.7l2.8-11.3c1.9,0.5,3.7,1,5.5,1.4l-2.8,11.3l6.9,1.7l2.8-11.4 c11.7,2.2,20.6,1.3,24.3-9.3c3-8.6-0.1-13.5-6.3-16.7C175.6,251.9,178.9,248.9,179.8,242.8L179.8,242.8z M164.1,264.9 c-2.1,8.6-16.5,3.9-21.2,2.8l3.8-15.2C151.4,253.7,166.3,256,164.1,264.9L164.1,264.9z M166.2,242.7c-1.9,7.8-13.9,3.8-17.8,2.9 l3.4-13.7C155.7,232.8,168.3,234.6,166.2,242.7z"></path><path class="st1" d="M273.3,227c5.1,0,9.5,0.9,13.2,2.7c3.7,1.8,6.8,4.2,9.2,7.3c2.4,3.1,4.2,6.7,5.4,10.8 c1.2,4.1,1.7,8.6,1.7,13.3c0,7.3-1.3,14.2-4,20.7c-2.7,6.5-6.4,12.2-11,17c-4.7,4.8-10.2,8.6-16.5,11.4c-6.3,2.8-13.2,4.2-20.6,4.2 c-1,0-2.6,0-5-0.1c-2.4,0-5.1-0.3-8.2-0.7c-3.1-0.4-6.3-1.1-9.8-1.9c-3.4-0.8-6.7-2-9.8-3.5l27.5-115.5L270,189l-9.8,41 c2.1-0.9,4.2-1.7,6.3-2.2C268.6,227.2,270.9,227,273.3,227L273.3,227z M252.7,295c3.7,0,7.2-0.9,10.5-2.7c3.3-1.8,6.1-4.2,8.5-7.2 c2.4-3,4.3-6.4,5.6-10.2s2.1-7.8,2.1-11.9c0-5.1-0.8-9-2.5-11.9c-1.7-2.9-4.8-4.3-9.4-4.3c-1.5,0-3.4,0.3-5.8,0.8 c-2.4,0.5-4.5,1.7-6.4,3.3l-10.5,43.5c0.6,0.1,1.2,0.2,1.7,0.3c0.5,0.1,1,0.2,1.5,0.2c0.5,0.1,1.2,0.1,1.9,0.1S251.5,295,252.7,295 L252.7,295z"></path><path class="st1" d="M328.4,312.3h-23.5l19.9-83.5h23.7L328.4,312.3z M339.9,218.6c-3.3,0-6.3-1-8.9-2.9c-2.7-1.9-4-4.9-4-9 c0-2.2,0.5-4.3,1.3-6.3c0.9-2,2.1-3.6,3.6-5.1c1.5-1.4,3.2-2.6,5.2-3.4c2-0.8,4.1-1.3,6.3-1.3c3.3,0,6.2,1,8.9,2.9c2.6,2,4,5,4,9 c0,2.2-0.4,4.3-1.4,6.3c-0.9,2-2.1,3.6-3.6,5.1c-1.5,1.4-3.2,2.6-5.2,3.4C344.2,218.2,342.1,218.6,339.9,218.6L339.9,218.6z"></path><path class="st1" d="M369,207.9l24.6-3.8l-6,24.6H414l-4.8,19.4H383l-7,29.2c-0.6,2.4-1,4.7-1.1,6.8c-0.1,2.1,0.2,3.9,0.8,5.5 c0.6,1.5,1.8,2.7,3.4,3.6c1.6,0.9,4,1.3,7.1,1.3c2.5,0,5-0.2,7.4-0.7c2.4-0.5,4.8-1.1,7.2-2l1.8,18.1c-3.2,1.2-6.6,2.2-10.3,3 c-3.7,0.9-8.1,1.3-13.2,1.3c-7.3,0-13-1.1-17-3.2c-4-2.2-6.9-5.1-8.6-8.9c-1.7-3.7-2.4-8.1-2.2-12.9c0.2-4.9,1-10,2.2-15.4 L369,207.9L369,207.9z"></path><path class="st1" d="M413,278.9c0-7.2,1.2-14,3.5-20.3c2.3-6.4,5.7-11.9,10-16.7c4.3-4.7,9.6-8.5,15.8-11.3 c6.2-2.7,13.1-4.1,20.7-4.1c4.8,0,9,0.5,12.8,1.4c3.8,0.9,7.2,2.1,10.3,3.6l-8.1,18.4c-2.1-0.9-4.3-1.6-6.6-2.3 c-2.3-0.7-5.1-1-8.3-1c-7.8,0-14.1,2.7-18.7,8.1c-4.6,5.4-6.9,12.7-6.9,21.8c0,5.4,1.2,9.8,3.5,13.1c2.3,3.3,6.6,5,12.9,5 c3.1,0,6.1-0.3,8.9-0.9c2.9-0.6,5.4-1.4,7.6-2.4l1.8,18.9c-3,1.2-6.3,2.2-9.8,3.1c-3.6,0.9-7.9,1.3-12.9,1.3 c-6.6,0-12.1-1-16.7-2.9c-4.6-1.9-8.3-4.5-11.3-7.7c-3-3.2-5.1-7-6.4-11.4C413.6,288.2,413,283.7,413,278.9L413,278.9z"></path><path class="st1" d="M517.4,314.5c-5.6,0-10.5-0.9-14.6-2.5c-4.1-1.7-7.5-4.1-10.2-7.1c-2.7-3.1-4.7-6.7-6.1-10.9 c-1.4-4.2-2.1-8.8-2.1-13.9c0-6.4,1-12.7,3.1-19.1c2.1-6.4,5.1-12.1,9.1-17.1c4-5.1,8.9-9.2,14.8-12.5c5.8-3.2,12.5-4.8,20-4.8 c5.5,0,10.4,0.9,14.5,2.5c4.2,1.7,7.6,4.1,10.3,7.1c2.7,3.1,4.7,6.7,6.1,10.9c1.4,4.2,2.1,8.8,2.1,13.9c0,6.3-1,12.7-3,19.1 c-2,6.3-5,12.1-8.9,17.1c-3.9,5.1-8.8,9.2-14.7,12.5C531.9,312.9,525.1,314.5,517.4,314.5L517.4,314.5z M529.1,246.5 c-3.5,0-6.6,1-9.2,3c-2.6,2-4.9,4.6-6.7,7.6c-1.8,3.1-3.2,6.4-4.1,10.1c-0.9,3.7-1.3,7.1-1.3,10.4c0,5.3,0.9,9.4,2.5,12.4 c1.7,3,4.8,4.4,9.2,4.4c3.5,0,6.6-1,9.2-3c2.6-2,4.9-4.6,6.7-7.6c1.8-3.1,3.2-6.4,4.1-10.1c0.9-3.6,1.3-7.1,1.3-10.4 c0-5.3-0.9-9.4-2.5-12.4C536.7,248,533.6,246.5,529.1,246.5L529.1,246.5z"></path><path class="st1" d="M590,312.3h-23.5l19.9-83.5H610L590,312.3z M601.4,218.6c-3.3,0-6.3-1-8.9-2.9c-2.6-1.9-4-4.9-4-9 c0-2.2,0.5-4.3,1.4-6.3c0.9-2,2.1-3.6,3.6-5.1c1.5-1.4,3.2-2.6,5.2-3.4c2-0.8,4-1.3,6.3-1.3c3.3,0,6.3,1,8.9,2.9c2.6,2,4,5,4,9 c0,2.2-0.5,4.3-1.4,6.3s-2.1,3.6-3.6,5.1c-1.5,1.4-3.2,2.6-5.2,3.4C605.8,218.2,603.7,218.6,601.4,218.6z"></path><path class="st1" d="M627,232.5c1.8-0.5,3.8-1.1,5.9-1.8c2.2-0.7,4.6-1.3,7.3-1.9c2.7-0.6,5.7-1.1,9-1.4c3.3-0.4,7.1-0.6,11.3-0.6 c12.4,0,20.9,3.6,25.7,10.8c4.7,7.2,5.5,17.1,2.5,29.5L678,312.3h-23.7l10.5-44.2c0.6-2.8,1.1-5.4,1.5-8c0.4-2.6,0.4-4.9-0.1-6.8 c-0.4-1.9-1.4-3.5-2.9-4.8c-1.6-1.2-3.9-1.8-7.1-1.8c-3.1,0-6.2,0.3-9.4,1l-15.4,64.6h-23.7L627,232.5z"></path></g></svg> 