<?xml version="1.0" encoding="utf-8"?>
<!-- Generator: Adobe Illustrator 16.0.0, SVG Export Plug-In . SVG Version: 6.00 Build 0)  -->
<!DOCTYPE svg PUBLIC "-//W3C//DTD SVG 1.1//EN" "http://www.w3.org/Graphics/SVG/1.1/DTD/svg11.dtd">
<svg version="1.1" id="Layer_1" xmlns="http://www.w3.org/2000/svg" xmlns:xlink="http://www.w3.org/1999/xlink" x="0px" y="0px"
	 width="612px" height="600px" viewBox="0 97.5 612 600" enable-background="new 0 97.5 612 600" xml:space="preserve">
<title>vps-hosting</title>
<path fill="#0948B3" d="M454.839,466.502c0-7.833-6.365-14.198-14.199-14.198c-7.833,0-14.198,6.365-14.198,14.198
	c0,7.834,6.365,14.199,14.198,14.199C448.474,480.701,454.839,474.336,454.839,466.502L454.839,466.502z"/>
<path fill="#0948B3" d="M454.839,317.419c0-7.833-6.365-14.198-14.199-14.198c-7.833,0-14.198,6.365-14.198,14.198
	c0,7.834,6.365,14.199,14.198,14.199l0,0C448.474,331.618,454.839,325.253,454.839,317.419z"/>
<ellipse fill="#0948B3" cx="546.749" cy="466.16" rx="14.199" ry="14.199"/>
<path fill="#0948B3" d="M591.314,397.958l-208.447,0.367c-4.161,0.123-7.467,3.306-7.589,7.467l0,0
	c-0.245,4.161,3.06,7.711,7.222,7.956c0.122,0,0.245,0,0.367,0l208.569-0.367c2.815,0,5.141,2.325,5.141,5.141l0,0v95.717
	c0,2.815-2.325,5.141-5.141,5.141l0,0H164.995c-2.815,0-5.141-2.325-5.141-5.141l0,0l-0.49-23.378c0-3.917-2.938-7.222-6.854-7.712
	h-0.122c-4.284-0.367-7.956,2.693-8.446,6.978c0,0.244,0,0.489,0,0.734l0.367,23.378c0.123,11.384,9.302,20.563,20.686,20.563
	h426.319c11.383,0,20.563-9.058,20.686-20.44v-95.717C612,407.261,602.697,397.958,591.314,397.958z"/>
<ellipse fill="#0948B3" cx="495.094" cy="466.167" rx="14.199" ry="14.199"/>
<circle fill="#0948B3" cx="546.639" cy="317.419" r="14.198"/>
<circle fill="#0948B3" cx="494.985" cy="317.419" r="14.198"/>
<path fill="#0948B3" d="M591.314,547.042H164.995c-11.383,0-20.686,9.302-20.686,20.686v95.594c0,11.384,9.302,20.686,20.686,20.686
	h426.319c11.383,0,20.686-9.302,20.686-20.686v-95.594C612,556.344,602.697,547.042,591.314,547.042z M596.577,663.321
	c0,0.979-0.367,2.081-0.856,2.938l-0.612,0.734c-0.979,0.979-2.325,1.47-3.672,1.47H164.995c-2.815,0-5.141-2.326-5.141-5.142l0,0
	v-95.594c-0.123-1.347,0.489-2.693,1.469-3.673c0.979-0.979,2.326-1.469,3.672-1.469h426.441c0.734,0,1.469,0.123,2.081,0.367
	l1.469,0.979h0.122l0.612,0.734c0.49,0.857,0.857,1.959,0.857,2.938L596.577,663.321z"/>
<path fill="#0948B3" d="M494.985,601.265c-7.833,0-14.198,6.365-14.198,14.198c0,7.834,6.365,14.199,14.198,14.199
	c7.834,0,14.198-6.365,14.198-14.199l0,0C509.184,607.63,502.819,601.265,494.985,601.265z"/>
<path fill="#0948B3" d="M440.64,601.387c-7.833,0-14.198,6.365-14.198,14.199c0,7.833,6.365,14.198,14.198,14.198
	c7.834,0,14.199-6.365,14.199-14.198c0.122-7.834-6.12-14.076-13.954-14.199C440.763,601.387,440.763,601.387,440.64,601.387z"/>
<path fill="#0948B3" d="M546.639,601.265c-7.834,0-14.198,6.365-14.198,14.198c0,7.834,6.364,14.199,14.198,14.199
	c7.833,0,14.198-6.365,14.198-14.199C560.837,607.63,554.472,601.265,546.639,601.265L546.639,601.265z"/>
<path fill="#0948B3" d="M591.314,248.875l-206.611,0.367c-3.672,0-6.609,2.938-6.732,6.61l0,0v2.203c0,3.672,2.938,6.61,6.61,6.61
	l206.855-0.367c2.815,0,5.141,2.325,5.141,5.141l0,0v95.717c0,2.815-2.325,5.141-5.141,5.141l0,0l-208.691,0.367
	c-3.55,0-6.487,2.938-6.61,6.487v2.203c-0.122,3.672,2.693,6.732,6.365,6.854c0.122,0,0.122,0,0.245,0l201.96-0.367
	c15.055-0.123,27.173-12.118,27.295-27.173v-89.107C612,258.178,602.697,248.875,591.314,248.875z"/>
<path fill="#0948B3" d="M188.496,468.583h131.09c20.809-0.122,40.393-15.422,41.005-35.618c0.979-38.066,0-152.877,0-152.877
	c0-22.644-18.36-41.004-41.005-41.004v-21.175l46.757-46.757h0.123c3.305,1.591,6.854,2.448,10.526,2.448
	c13.709,0,24.725-11.016,24.847-24.603c0.123-13.586-11.016-24.725-24.603-24.847c-13.708,0-24.725,11.016-24.847,24.603
	c0,3.794,0.856,7.466,2.448,10.894h-0.123l-49.082,49.083c-1.591,1.469-2.448,3.549-2.448,5.753v24.602h-16.401v-31.457
	c0-4.529-3.672-8.201-8.201-8.201s-8.201,3.672-8.201,8.201v31.457H253.98v-57.528c12.852-4.529,19.584-18.605,15.055-31.334
	c-4.529-12.852-18.604-19.584-31.334-15.055c-12.729,4.529-19.584,18.605-15.055,31.334v0.123
	c2.448,6.977,8.079,12.485,15.055,14.933v57.528h-16.401v-31.457c0-4.529-3.672-8.201-8.201-8.201s-8.201,3.672-8.201,8.201v31.457
	h-16.401v-57.405c0-2.203-0.857-4.284-2.448-5.753l-32.803-32.803l0,0c1.591-3.305,2.448-6.854,2.448-10.526
	c0.123-13.586-10.894-24.603-24.48-24.725c-13.586-0.123-24.603,10.894-24.725,24.48c-0.122,13.586,10.894,24.602,24.48,24.725
	h0.123c3.672,0.123,7.222-0.734,10.526-2.448h0.123l30.355,30.355v53.979c-22.644,0-41.004,18.36-41.004,41.004l0,0h-29.376
	L79.56,257.933h-0.123c1.591-3.305,2.448-6.854,2.57-10.526c0-13.586-11.016-24.602-24.602-24.602s-24.603,11.016-24.603,24.602
	s11.016,24.603,24.603,24.603c3.672,0,7.221-0.857,10.526-2.448l0,0l24.602,24.603c1.469,1.591,3.55,2.448,5.753,2.448h32.803
	v16.401H82.008c-1.836,0-3.672,0.612-5.141,1.714l-36.23,28.886c-4.406-3.917-10.159-6.242-16.034-6.242
	C11.016,337.371,0,348.386,0,361.973s11.016,24.603,24.603,24.603s24.602-11.016,24.602-24.603c0-1.346-0.245-2.57-0.489-3.917
	l36.108-28.887h46.267v16.402h-24.603c-4.529,0-8.201,3.672-8.201,8.201s3.672,8.201,8.201,8.201h24.603v16.402H73.807
	c-4.529,0-8.201,3.672-8.201,8.201s3.672,8.201,8.201,8.201l0,0h57.283v16.402H90.086c-2.693,0-5.263,1.347-6.732,3.672
	l-31.946,47.858c-3.305-1.469-6.854-2.325-10.404-2.325c-13.708,0-24.725,11.016-24.847,24.602
	c-0.123,13.587,11.016,24.726,24.603,24.848s24.725-11.016,24.847-24.603c0-3.794-0.857-7.466-2.448-10.894l1.102-1.224
	l30.233-45.533h36.598c0.123,22.645,18.36,40.882,41.004,41.004H188.496z M372.341,142.143c1.347-0.857,3.06-1.347,4.651-1.347
	c1.102,0,2.203,0.123,3.183,0.612c3.06,1.224,5.018,4.284,5.018,7.589c0,2.938-1.591,5.508-4.161,6.977
	c-1.224,0.734-2.57,1.102-4.039,1.102c-1.592,0-3.305-0.49-4.651-1.346c-3.794-2.693-4.651-7.834-1.958-11.628
	C370.872,143.366,371.606,142.632,372.341,142.143L372.341,142.143z M135.742,139.327c-1.347,0.979-2.938,1.469-4.651,1.469
	c-4.529,0-8.201-3.672-8.201-8.201s3.672-8.201,8.201-8.201c1.591,0,3.305,0.489,4.651,1.346c2.203,1.591,3.549,4.162,3.549,6.854
	S137.945,137.736,135.742,139.327z M61.935,254.016c-1.347,0.979-2.938,1.469-4.529,1.469c-4.529,0-8.201-3.672-8.201-8.201
	c0-2.203,0.857-4.284,2.326-5.753c0.123-0.123,0.245-0.123,0.245-0.245c0.489-0.489,1.102-0.856,1.713-1.224
	c1.224-0.612,2.57-0.979,3.917-0.979c1.591,0,3.182,0.49,4.529,1.347c2.325,1.591,3.672,4.162,3.672,6.854
	C65.606,249.977,64.26,252.547,61.935,254.016z M31.212,366.747c-1.469,2.203-4.039,3.427-6.609,3.427
	c-4.529,0-8.201-3.672-8.201-8.201c0-2.203,0.857-4.284,2.448-5.752c1.469-1.591,3.55-2.448,5.753-2.448
	c4.529,0,8.201,3.672,8.201,8.201C32.803,363.687,32.191,365.4,31.212,366.747z M46.757,490.737
	c-0.734,0.734-1.591,1.347-2.57,1.714c-0.979,0.489-2.081,0.734-3.183,0.734c-4.529,0-8.201-3.672-8.201-8.201
	c0-4.528,3.672-8.2,8.201-8.2c1.102,0,2.203,0.122,3.183,0.611c0.979,0.367,1.836,0.979,2.57,1.714
	c3.182,3.061,3.305,8.201,0.245,11.384C46.879,490.615,46.879,490.615,46.757,490.737z M245.901,150.343
	c4.407-0.123,7.956,3.427,8.079,7.833c0,0.123,0,0.245,0,0.367c0,2.693-1.346,5.263-3.55,6.732c-2.692,1.958-6.487,1.958-9.18,0
	l-1.224-0.979c-3.183-3.183-3.183-8.446,0.123-11.628C241.618,151.2,243.698,150.343,245.901,150.343L245.901,150.343z
	 M164.138,450.835l-1.836-0.734c-9.058-3.794-14.81-12.729-14.81-22.521V280.087c0-13.586,11.016-24.603,24.602-24.603l0,0h147.492
	c4.04,0,8.079,0.979,11.751,2.938c7.956,4.406,12.852,12.607,12.852,21.665v147.492c0,13.587-11.016,24.603-24.603,24.603l0,0
	H172.094c-2.448,0-5.018-0.367-7.344-1.102L164.138,450.835z"/>
<path fill="#0948B3" d="M197.921,422.316h95.839c11.383,0,20.686-9.303,20.686-20.686v-95.717
	c-0.122-11.383-9.302-20.563-20.686-20.563h-95.839c-11.383,0-20.563,9.18-20.686,20.563v95.717
	C177.235,413.014,186.538,422.316,197.921,422.316z M192.78,305.914c0-1.346,0.49-2.57,1.469-3.549
	c0.979-0.979,2.325-1.591,3.672-1.591h95.961c0.734,0,1.469,0.245,2.081,0.489l1.469,0.979h0.122l0.612,0.734
	c0.612,0.857,0.857,1.836,0.857,2.815v95.717c0,1.102-0.245,2.081-0.857,2.938l-0.612,0.734c-0.979,0.979-2.325,1.469-3.672,1.469
	h-95.961c-2.815,0-5.141-2.325-5.141-5.141V305.914L192.78,305.914z"/>
</svg>
