<?xml version="1.0" encoding="utf-8"?>
<!-- Generator: Adobe Illustrator 23.0.3, SVG Export Plug-In . SVG Version: 6.00 Build 0)  -->
<svg version="1.1" id="cross-selling" xmlns="http://www.w3.org/2000/svg" xmlns:xlink="http://www.w3.org/1999/xlink" x="0px"
	 y="0px" viewBox="0 0 72 72" style="enable-background:new 0 0 72 72;" xml:space="preserve">
<style type="text/css">
	.st0{fill:none;stroke:#FFFFFF;stroke-width:4;}
</style>
<path id="Kształt_134" class="st0" d="M4.6,21h9l11,31h32l8-23h-7"/>
<g id="arrows">
	<path id="Kształt_138" class="st0" d="M27,37l5,5l5-5"/>
	<path id="Kształt_138_kopia" class="st0" d="M44,37l5,5l5-5"/>
	<path id="Kształt_135" class="st0" d="M32,3v11l17,14v11"/>
	<path id="Kształt_136" class="st0" d="M49,3v9l-5,6"/>
	<path id="Kształt_136_kopia" class="st0" d="M32,39v-9l5-6"/>
</g>
<path id="Prostokąt_zaokrąglony_1" class="st0" d="M27.1,60c1.9,0,3.5,1.6,3.5,3.5S29,67,27.1,67s-3.5-1.6-3.5-3.5
	S25.2,60,27.1,60z M53.1,60c1.9,0,3.5,1.6,3.5,3.5S55,67,53.1,67s-3.5-1.6-3.5-3.5S51.2,60,53.1,60z"/>
</svg>
