<?xml version="1.0" encoding="utf-8"?>
<!-- Generator: Adobe Illustrator 16.0.0, SVG Export Plug-In . SVG Version: 6.00 Build 0)  -->
<!DOCTYPE svg PUBLIC "-//W3C//DTD SVG 1.1//EN" "http://www.w3.org/Graphics/SVG/1.1/DTD/svg11.dtd">
<svg version="1.1" id="Layer_1" xmlns="http://www.w3.org/2000/svg" xmlns:xlink="http://www.w3.org/1999/xlink" x="0px" y="0px"
	 width="612px" height="606px" viewBox="0 91.5 612 606" enable-background="new 0 91.5 612 606" xml:space="preserve">
<g>
	<path fill="#0948B3" d="M353.124,156.463c-5.386,0-9.792,4.406-9.792,9.792c0,5.385,4.406,9.792,9.792,9.792
		c33.782,0,65.852,15.177,87.271,41.371c3.06,4.406,9.18,5.508,13.586,2.326c4.406-3.06,5.508-9.18,2.326-13.586
		c-0.245-0.367-0.612-0.734-0.979-1.102C430.358,174.211,392.781,156.463,353.124,156.463L353.124,156.463z"/>
	<path fill="#0948B3" d="M588.744,314.727c-13.22-16.279-30.845-28.397-50.919-34.639c-5.018-101.959-91.8-180.54-193.759-175.522
		c-60.955,3.06-116.525,35.986-148.471,88.006c-44.554-13.954-91.922,10.894-105.876,55.325c-0.734,2.448-1.346,4.896-1.958,7.344
		C33.538,269.438-3.06,319.867,0.245,375.804c3.672,62.179,56.182,110.282,118.483,110.282h133.171l-6.854,0.123l261.691-0.123
		c58.14,0,105.386-47.123,105.386-105.386C612,356.709,603.799,333.454,588.744,314.727L588.744,314.727z M505.268,466.502
		l-259.978,0.123l6.487-0.123H118.728c-52.02,0-96.084-40.27-99.021-92.167c-2.693-48.593,30.722-91.8,78.458-101.469
		c4.161-0.857,7.221-4.162,7.833-8.323c4.651-35.496,37.332-60.466,72.828-55.814c5.875,0.734,11.628,2.326,17.136,4.773
		c4.651,1.958,10.037,0.245,12.485-4.162c29.131-52.754,84.578-85.435,144.799-85.435c90.332,0,164.506,73.44,165.362,163.771
		c0,4.529,3.183,8.446,7.589,9.425c38.557,8.813,65.974,42.962,66.341,82.498C593.028,427.457,553.126,466.502,505.268,466.502z"/>
	<path fill="#0948B3" d="M338.681,622.93V510.321c0-5.263-4.284-9.669-9.669-9.669c-5.386,0-9.67,4.283-9.67,9.669l0,0V622.93
		c-17.503,5.263-27.418,23.745-22.155,41.249c4.162,13.708,16.647,23.134,30.967,23.501h0.734c18.237,0,33.171-14.811,33.171-33.049
		C362.304,639.943,352.757,627.091,338.681,622.93z M329.134,668.463h-0.367c-7.711-0.123-13.831-6.365-13.709-14.076
		c0.122-7.712,6.365-13.831,14.076-13.709l0,0h0.367c3.672,0,7.222,1.591,9.669,4.284c5.264,5.508,5.142,14.32-0.367,19.584
		C336.232,667.116,332.806,668.463,329.134,668.463z"/>
	<path fill="#0948B3" d="M276.991,500.652c-5.263,0-9.547,4.283-9.669,9.547v53.855c0,9.303-7.467,16.77-16.769,16.77h-28.274
		c-5.263-17.504-23.868-27.418-41.371-22.154c-17.503,5.263-27.417,23.867-22.154,41.371c5.263,17.503,23.868,27.417,41.371,22.154
		c10.649-3.183,18.972-11.506,22.154-22.154h28.274c19.829,0,35.986-16.157,35.986-35.986v-53.855
		C286.661,505.059,282.377,500.774,276.991,500.652L276.991,500.652L276.991,500.652z M190.577,604.569
		c-7.711,0-13.954-6.242-13.954-13.953s6.243-13.954,13.954-13.954c7.711,0,13.954,6.243,13.954,13.954l0,0
		C204.53,598.327,198.166,604.569,190.577,604.569z"/>
	<path fill="#0948B3" d="M467.69,557.445c-14.565,0-27.54,9.548-31.701,23.623h-28.397c-9.302,0-16.769-7.466-16.769-16.769v-53.855
		c0-5.264-4.284-9.67-9.67-9.67s-9.669,4.284-9.669,9.67V564.3c0,19.829,16.156,35.985,35.985,35.985h28.274
		c5.386,17.504,23.868,27.418,41.371,22.032s27.418-23.868,22.032-41.371C495.108,566.993,482.256,557.445,467.69,557.445
		L467.69,557.445z M467.69,604.692c-7.711,0-13.954-6.243-13.954-13.954s6.243-13.953,13.954-13.953s13.953,6.242,13.953,13.953
		s-6.119,13.954-13.831,13.954C467.69,604.692,467.69,604.692,467.69,604.692z"/>
</g>
</svg>
