<?xml version="1.0" encoding="utf-8"?>
<!-- Generator: Adobe Illustrator 16.0.0, SVG Export Plug-In . SVG Version: 6.00 Build 0)  -->
<!DOCTYPE svg PUBLIC "-//W3C//DTD SVG 1.1//EN" "http://www.w3.org/Graphics/SVG/1.1/DTD/svg11.dtd">
<svg version="1.1" id="Layer_1" xmlns="http://www.w3.org/2000/svg" xmlns:xlink="http://www.w3.org/1999/xlink" x="0px" y="0px"
	 width="612px" height="627px" viewBox="0 83.5 612 627" enable-background="new 0 83.5 612 627" xml:space="preserve">
<g>
	<ellipse fill="#0948B3" cx="519.852" cy="615.114" rx="17.993" ry="17.993"/>
	<circle fill="#0948B3" cx="385.315" cy="615.096" r="17.993"/>
	<path fill="#0948B3" d="M576.504,528.192H35.496c-14.443,0-26.071,11.75-26.194,26.193v121.421C9.302,690.25,21.053,702,35.496,702
		h541.008c14.443,0,26.193-11.75,26.193-26.193V554.386C602.697,539.942,590.947,528.192,576.504,528.192z M583.113,675.807
		c0,3.55-2.938,6.487-6.487,6.487H35.496c-3.55,0-6.487-2.938-6.487-6.487V554.386c0-3.55,2.938-6.487,6.487-6.487l0,0h541.13
		c3.55,0,6.487,2.938,6.487,6.487V675.807z"/>
	<ellipse fill="#0948B3" cx="454.275" cy="615.119" rx="17.993" ry="17.993"/>
	<path fill="#0948B3" d="M576.504,339.084h-9.18C561.571,206.158,456.552,99.058,324.482,90c-4.162-0.367-7.834,2.815-8.201,6.977
		v0.123c-0.367,4.162,2.693,7.833,6.978,8.201h0.122c124.604,8.201,223.135,108.936,228.644,233.662h-13.709
		c-7.222-128.275-117.015-226.317-245.29-219.096C174.91,126.475,80.539,220.846,73.93,338.961H60.221
		c5.63-124.726,104.04-225.338,228.521-233.662c4.162-0.245,7.344-3.794,7.099-8.078c0-0.123,0-0.123,0-0.245
		c-0.245-4.161-3.794-7.344-8.079-7.221c-0.122,0-0.122,0-0.245,0C155.448,99.302,50.796,206.28,44.676,339.084h-9.18
		c-14.443,0-26.194,11.75-26.194,26.193v121.421c0,14.443,11.75,26.193,26.194,26.193h541.008c14.443,0,26.193-11.75,26.193-26.193
		V365.277C602.697,350.712,590.947,339.084,576.504,339.084L576.504,339.084z M114.322,249.12l13.097,7.466
		c3.672,2.081,8.323,0.857,10.526-2.815c2.081-3.672,0.857-8.323-2.815-10.526l-13.097-7.466
		c17.503-27.907,41.126-51.408,68.911-68.911l7.466,13.097c1.958,3.794,6.61,5.141,10.404,3.183s5.141-6.61,3.182-10.404
		c-0.122-0.122-0.245-0.367-0.245-0.489l-7.711-13.097c29.009-15.545,61.2-24.113,94.125-25.215v15.178
		c0,4.284,3.427,7.711,7.711,7.711s7.711-3.427,7.711-7.711v-15.055c32.926,1.102,65.117,9.669,94.126,25.214l-7.467,13.097
		c-2.081,3.672-0.856,8.323,2.815,10.526c3.672,2.081,8.323,0.857,10.526-2.815l0,0l7.466-13.097
		c27.907,17.503,51.408,41.004,68.911,68.911l-13.097,7.466c-3.672,2.081-4.896,6.854-2.815,10.526
		c2.081,3.672,6.854,4.896,10.527,2.815l13.097-7.467c15.545,29.009,24.235,61.2,25.214,94.126h-99.511
		c-1.959-31.947-17.014-61.567-41.616-82.008l12.852-22.277c5.631-9.914,2.203-22.521-7.711-28.274
		c-0.122-0.122-0.244-0.122-0.367-0.245c-9.792-5.263-22.032-1.836-27.54,7.833l-12.852,22.277
		c-12.729-4.651-26.316-6.977-39.902-6.977c-61.69,0-112.853,47.858-117.015,109.548H89.107l-0.123-0.123
		C90.209,310.32,98.899,278.129,114.322,249.12L114.322,249.12z M363.896,356.832c-3.183,31.702-31.457,54.835-63.159,51.652
		c-27.295-2.692-48.96-24.357-51.653-51.652c-0.734-7.589-6.977-13.342-14.565-13.464h-29.376
		c4.406-56.304,53.733-98.287,109.915-93.881c8.078,0.612,16.034,2.203,23.745,4.773l-32.558,56.304
		c-22.277,0.122-40.27,18.36-40.147,40.759c0.122,22.276,18.36,40.27,40.759,40.147c13.709-0.123,26.316-6.977,33.905-18.36
		c2.448-3.55,1.591-8.323-1.959-10.771c-3.549-2.448-8.322-1.591-10.771,1.958c-0.123,0.123-0.123,0.245-0.245,0.367
		c-7.589,11.628-23.133,14.933-34.762,7.344c-11.628-7.589-14.933-23.134-7.344-34.762s23.134-14.933,34.762-7.344
		c2.938,1.958,5.508,4.406,7.344,7.344c2.325,3.55,7.1,4.529,10.771,2.203c2.692-1.713,3.917-4.896,3.305-7.956l32.803-56.671
		c19.951,17.503,32.191,42.105,34.027,68.544h-29.988C370.872,343.368,364.507,349.243,363.896,356.832L363.896,356.832z
		 M372.219,225.986c1.346-2.448,4.406-3.305,6.854-2.081c2.447,1.224,3.549,4.284,2.203,6.854c0,0.123-0.123,0.245-0.123,0.245
		l-16.279,28.029c-3.549,6.12-30.478,53-34.394,59.486c-2.815-2.081-5.753-3.794-8.936-5.263L372.219,225.986z M583.113,486.698
		c0,3.55-2.938,6.487-6.487,6.487H35.496c-3.55,0-6.487-2.938-6.487-6.487v-121.42c0-3.55,2.938-6.487,6.487-6.487l0,0h72.094
		l-0.123-0.123h125.95c0.245,2.203,0.612,4.529,0.979,6.609c7.833,39.658,46.267,65.362,85.924,57.528
		c31.457-6.242,55.203-32.191,58.508-64.138h125.705l-0.123,0.123h72.216c3.55,0,6.487,2.938,6.487,6.487V486.698z"/>
	<ellipse fill="#0948B3" cx="454.214" cy="425.941" rx="17.993" ry="17.993"/>
	<circle fill="#0948B3" cx="519.833" cy="425.988" r="17.993"/>
	<path fill="#0948B3" d="M385.56,407.995c-2.325,0.489-4.773,0.979-7.099,1.347c-9.18,3.794-13.709,14.32-9.914,23.501
		c3.794,9.18,14.32,13.708,23.5,9.914c9.181-3.794,13.709-14.321,9.915-23.501C399.269,412.524,392.781,408.117,385.56,407.995z"/>
</g>
</svg>
