<?xml version="1.0" encoding="utf-8"?>
<!-- Generator: Adobe Illustrator 21.0.0, SVG Export Plug-In . SVG Version: 6.00 Build 0)  -->
<svg version="1.1" id="_x34_b97403d-1374-4337-ae21-d2dddde295bb"
	 xmlns="http://www.w3.org/2000/svg" xmlns:xlink="http://www.w3.org/1999/xlink" x="0px" y="0px" viewBox="0 0 200 148.9"
	 style="enable-background:new 0 0 200 148.9;" xml:space="preserve">
<style type="text/css">
	.st0{fill:#009950;}
	.st1{fill:#00BF6C;}
	.st2{fill:#FFFFFF;}
</style>
<title>wordpress-logo</title>
<g>
	<path class="st0" d="M0.5,78l1.2,15.8c0,0.5,0.1,1,0.2,1.5c12.4,75.2,188.9,72.7,198.1-16.2c0.1-0.9,0.1-1.8,0-2.7l-1.2-16.2
		L0.5,78z"/>
	<path class="st1" d="M198.6,65.2c-4,39.9-59,71.7-120.2,66.1C19.5,126-11.9,88.5,4.2,52C18.6,19.6,66.8-2.2,114.5,0.2
		C163.7,2.6,202.1,30.1,198.6,65.2z"/>
	<path class="st2" d="M93.1,124.5c46.7,1.9,89.9-19.8,97.6-50.1c8.3-32.5-26.1-63.3-78.6-66.9C58.3,3.9,11.6,30.6,9.5,64.8
		C7.4,96.7,45.4,122.6,93.1,124.5z M94.4,116c-18.5-0.8-36-5.9-48.7-14.4l1.2,0.1c7.9,0.4,14.8-3.3,15.4-8.2
		c0.6-4.9-22.1-13.1-6.5-35.8l12.3-18.4L88.9,91l-10.8-0.5l-0.6,4.5l45.5,2.1l0.9-4.5l-10.2-0.5l-8.1-21.5l20.5-27.8l17.1,50.8
		l-9.6-0.5l-0.9,4.5l25.5,1.2C142.2,110.5,118.5,117,94.4,116L94.4,116z M176.5,73.5c-1.8,6.8-5.2,13-10.1,18.1l-20-64.8
		C169.5,37.5,180.9,55.6,176.5,73.5z M110.4,18.3c8.1,0.5,16.2,1.9,24,4.1l-31.5,40.9L86.4,19.1C94.3,18,102.4,17.7,110.4,18.3
		L110.4,18.3z M71.8,22.2L39,70.4c-1.1,1.4-2.1,2.9-3,4.5l-1.3,2l0.3,0c-2,4-2.8,8.6-2.1,13.1C13.6,65.6,29.6,35,69.9,22.8
		L71.8,22.2z"/>
</g>
</svg>
